<?xml version="1.0" encoding="utf-8"?>
<!-- Generator: Adobe Illustrator 26.0.3, SVG Export Plug-In . SVG Version: 6.00 Build 0)  -->
<svg version="1.1" id="Layer_1" xmlns="http://www.w3.org/2000/svg" xmlns:xlink="http://www.w3.org/1999/xlink" x="0px" y="0px"
	 viewBox="0 0 512.1 512.1" style="enable-background:new 0 0 512.1 512.1;" xml:space="preserve">
<g>
	<g>
		<g>
			<path d="M230.2,355.6c97.9,0,177.6-77.4,177.6-172.4S328.2,10.8,230.2,10.8S52.6,88.2,52.6,183.3S132.2,355.6,230.2,355.6z
				 M230,31.7c86.4,0,156.7,67.9,156.7,151.5S316.4,334.7,230,334.7S73.3,266.8,73.3,183.3S143.6,31.7,230,31.7z"/>
			<path d="M262,415.7c50.5-6.5,99.2-28.5,137.9-66.2c45.4-44.4,70.5-103.3,70.5-165.9c0-59-22.5-114.3-63.1-157.2l8.4-8.2
				c4.3-3.8,4.6-10.5,0.6-14.7s-10.6-4.6-14.8-0.6c-0.2,0.2-0.3,0.3-0.5,0.5l-29.7,28.9c-4.3,3.8-4.6,10.5-0.6,14.7
				s10.6,4.6,14.8,0.6c0.2-0.2,0.3-0.3,0.5-0.5l6.3-6.1c36.8,39,57.2,89.2,57.2,142.6c0,57-22.8,110.5-64.2,150.9
				c-83,81-216.2,83.3-301.4,7.1l5.4-5.3c3.9-4.2,3.8-10.8-0.3-14.8c-3.9-3.8-10.2-3.8-14.3-0.1l-29.7,28.9
				c-4.9,4.5-4.6,12.7,1.5,16.6c2.1,1.4,4.7,1.9,7.1,1.5c2.3-0.4,4.5-1.5,6.1-3.2l9.2-9c36.3,32.6,81.7,53.4,130.2,59.5v33.7
				c0.1,0.7,0.2,1.5,0.4,2.2c-36.7,5.1-71.4,19.4-101,41.6c-4.6,3.4-5.5,10-2.1,14.6c2,2.7,5.1,4.2,8.4,4.2h251
				c5.8,0,10.5-4.7,10.5-10.5c0-3.3-1.6-6.4-4.2-8.3c-29.4-22.1-64.1-36.4-100.6-41.6c0.2-0.7,0.4-1.5,0.4-2.3L262,415.7L262,415.7z
				 M219.4,450v-32.6c3.4,0.1,6.8,0.4,10.2,0.4c3.7,0,7.4-0.3,11.1-0.5v32.6c0,0.1,0.1,0.3,0.1,0.4c-3.6-0.2-7.3-0.4-10.9-0.4
				s-7,0.2-10.6,0.4C219.2,450.3,219.4,450.1,219.4,450z M318.4,491.9H141.6C197.3,464.1,262.8,464.1,318.4,491.9z"/>
		</g>
	</g>
</g>
</svg>
