<svg xmlns="http://www.w3.org/2000/svg" viewBox="0 0 428.79 512.1"><g id="Layer_2" data-name="Layer 2"><g id="Layer_1-2" data-name="Layer 1"><path d="M188.57,355.62c97.92,0,177.6-77.44,177.6-172.37S286.49,10.77,188.57,10.77,11,88.21,11,183.25,90.55,355.62,188.57,355.62Zm-.21-323.94c86.4,0,156.69,67.94,156.69,151.46S274.76,334.72,188.36,334.72s-156.69-68-156.69-151.47S102,31.68,188.36,31.68Z"/><path d="M220.36,415.68c50.45-6.51,99.2-28.48,137.92-66.24,45.44-44.38,70.51-103.26,70.51-165.87,0-59-22.51-114.35-63.15-157.23l8.43-8.21a10.35,10.35,0,0,0,.64-14.72,10.47,10.47,0,0,0-14.83-.64l-.53.53L329.69,32.21a10.35,10.35,0,0,0-.64,14.72,10.47,10.47,0,0,0,14.83.64l.53-.53,6.3-6.08c36.8,39,57.17,89.17,57.17,142.61,0,57-22.83,110.51-64.21,150.93-83,81-216.22,83.31-301.44,7.15l5.44-5.33a10.57,10.57,0,0,0-.32-14.83,10.42,10.42,0,0,0-14.3-.11L3.4,350.29a10.52,10.52,0,0,0,1.49,16.64A10,10,0,0,0,12,368.42a10.83,10.83,0,0,0,6.08-3.2l9.17-9a239.14,239.14,0,0,0,130.24,59.52v33.71a17.68,17.68,0,0,0,.43,2.24,218.89,218.89,0,0,0-101,41.6,10.41,10.41,0,0,0,6.29,18.77h251a10.43,10.43,0,0,0,6.29-18.77,219.67,219.67,0,0,0-100.58-41.6,8.44,8.44,0,0,0,.42-2.35v-33.7ZM177.69,450V417.38c3.42.11,6.83.43,10.24.43,3.74,0,7.36-.32,11.1-.53v32.64c0,.11.1.32.1.43-3.62-.22-7.25-.43-10.88-.43s-7,.21-10.56.43C177.59,450.34,177.69,450.13,177.69,450Zm99.1,41.92H99.93A197.7,197.7,0,0,1,276.79,491.94Z"/></g></g></svg>