<?xml version="1.0" encoding="iso-8859-1"?>
<!-- Generator: Adobe Illustrator 19.0.0, SVG Export Plug-In . SVG Version: 6.00 Build 0)  -->
<svg version="1.1" id="Layer_1" xmlns="http://www.w3.org/2000/svg" xmlns:xlink="http://www.w3.org/1999/xlink" x="0px" y="0px"
	 viewBox="0 0 512.104 512.104" style="enable-background:new 0 0 512.104 512.104;" xml:space="preserve">
<g>
	<g>
		<g>
			<path d="M230.233,355.624c97.92,0,177.6-77.44,177.6-172.373s-79.68-172.48-177.6-172.48s-177.6,77.44-177.6,172.48
				S132.206,355.624,230.233,355.624z M230.019,31.677c86.4,0,156.693,67.947,156.693,151.467s-70.293,151.573-156.693,151.573
				S73.326,266.771,73.326,183.251S143.619,31.677,230.019,31.677z"/>
			<path d="M262.019,415.677c50.453-6.507,99.2-28.48,137.92-66.24c45.44-44.373,70.507-103.253,70.507-165.867
				c0-58.987-22.507-114.347-63.147-157.227l8.427-8.213c4.267-3.84,4.587-10.453,0.64-14.72s-10.56-4.587-14.827-0.64
				c-0.213,0.213-0.32,0.32-0.533,0.533l-29.653,28.907c-4.267,3.84-4.587,10.453-0.64,14.72c3.947,4.267,10.56,4.587,14.827,0.64
				c0.213-0.213,0.32-0.32,0.533-0.533l6.293-6.08c36.8,39.04,57.173,89.173,57.173,142.613c0,56.96-22.827,110.507-64.213,150.933
				c-82.987,80.96-216.213,83.307-301.44,7.147l5.44-5.333c3.947-4.16,3.84-10.773-0.32-14.827c-3.947-3.84-10.24-3.84-14.293-0.107
				l-29.653,28.907c-4.907,4.48-4.587,12.693,1.493,16.64c2.133,1.387,4.693,1.92,7.147,1.493c2.347-0.427,4.48-1.493,6.08-3.2
				l9.173-8.96c36.267,32.64,81.707,53.44,130.24,59.52v33.707c0.107,0.747,0.213,1.493,0.427,2.24
				c-36.693,5.12-71.36,19.413-101.013,41.6c-4.587,3.413-5.547,10.027-2.133,14.613c2.027,2.667,5.12,4.16,8.427,4.16h250.987
				c5.76,0,10.453-4.693,10.453-10.453c0-3.307-1.6-6.4-4.16-8.32c-29.44-22.08-64.107-36.373-100.587-41.6
				c0.213-0.747,0.427-1.493,0.427-2.347V415.677z M219.353,450.024v-32.64c3.413,0.107,6.827,0.427,10.24,0.427
				c3.733,0,7.36-0.32,11.093-0.533v32.64c0,0.107,0.107,0.32,0.107,0.427c-3.627-0.213-7.253-0.427-10.88-0.427
				c-3.627,0-7.04,0.213-10.56,0.427C219.246,450.344,219.353,450.13,219.353,450.024z M318.446,491.944H141.593
				C197.273,464.104,262.766,464.104,318.446,491.944z"/>
		</g>
	</g>
</g>
<g>
</g>
<g>
</g>
<g>
</g>
<g>
</g>
<g>
</g>
<g>
</g>
<g>
</g>
<g>
</g>
<g>
</g>
<g>
</g>
<g>
</g>
<g>
</g>
<g>
</g>
<g>
</g>
<g>
</g>
</svg>
